<?xml version="1.0" encoding="UTF-8" standalone="no"?>
<!DOCTYPE svg PUBLIC "-//W3C//DTD SVG 1.1//EN"
 "http://www.w3.org/Graphics/SVG/1.1/DTD/svg11.dtd">
<!-- Generated by graphviz version 2.40.1 (20161225.0304)
 -->
<!-- Title: dependencies Pages: 1 -->
<svg width="504pt" height="211pt"
 viewBox="0.00 0.00 504.00 211.00" xmlns="http://www.w3.org/2000/svg" xmlns:xlink="http://www.w3.org/1999/xlink">
<g id="graph0" class="graph" transform="scale(1 1) rotate(0) translate(4 207)">
<title>dependencies</title>
<polygon fill="#ffffff" stroke="transparent" points="-4,4 -4,-207 500,-207 500,4 -4,4"/>
<text text-anchor="start" x="227.0091" y="-42.4" font-family="sans-serif" font-weight="bold" font-size="14.00" fill="#000000">Legend</text>
<polygon fill="#ffffb3" stroke="transparent" points="14,-10 14,-30 34,-30 34,-10 14,-10"/>
<text text-anchor="start" x="37.629" y="-15.4" font-family="sans-serif" font-size="14.00" fill="#000000"> &#160;Declarations</text>
<polygon fill="#8dd3c7" stroke="transparent" points="127,-10 127,-30 147,-30 147,-10 127,-10"/>
<text text-anchor="start" x="150.7251" y="-15.4" font-family="sans-serif" font-size="14.00" fill="#000000"> &#160;Module</text>
<polygon fill="#80b1d3" stroke="transparent" points="213,-10 213,-30 233,-30 233,-10 213,-10"/>
<text text-anchor="start" x="236.7812" y="-15.4" font-family="sans-serif" font-size="14.00" fill="#000000"> &#160;Bootstrap</text>
<polygon fill="#fdb462" stroke="transparent" points="310,-10 310,-30 330,-30 330,-10 310,-10"/>
<text text-anchor="start" x="333.6732" y="-15.4" font-family="sans-serif" font-size="14.00" fill="#000000"> &#160;Providers</text>
<polygon fill="#fb8072" stroke="transparent" points="406,-10 406,-30 426,-30 426,-10 406,-10"/>
<text text-anchor="start" x="429.7258" y="-15.4" font-family="sans-serif" font-size="14.00" fill="#000000"> &#160;Exports</text>
<g id="clust1" class="cluster">
<title>cluster_GameModule</title>
<polygon fill="none" stroke="#000000" stroke-dasharray="1,5" points="100,-70 100,-195 396,-195 396,-70 100,-70"/>
</g>
<g id="clust2" class="cluster">
<title>cluster_GameModule_declarations</title>
<polygon fill="none" stroke="#000000" points="258,-78 258,-130 388,-130 388,-78 258,-78"/>
</g>
<g id="clust7" class="cluster">
<title>cluster_GameModule_providers</title>
<polygon fill="none" stroke="#000000" points="108,-78 108,-130 250,-130 250,-78 108,-78"/>
</g>
<!-- GameComponent -->
<g id="node1" class="node">
<title>GameComponent</title>
<polygon fill="#ffffb3" stroke="#000000" points="380.2591,-122 265.7409,-122 265.7409,-86 380.2591,-86 380.2591,-122"/>
<text text-anchor="middle" x="323" y="-99.8" font-family="Times,serif" font-size="14.00" fill="#000000">GameComponent</text>
</g>
<!-- GameModule -->
<g id="node2" class="node">
<title>GameModule</title>
<polygon fill="#8dd3c7" stroke="#000000" points="297.4762,-187 294.4762,-191 273.4762,-191 270.4762,-187 204.5238,-187 204.5238,-151 297.4762,-151 297.4762,-187"/>
<text text-anchor="middle" x="251" y="-164.8" font-family="Times,serif" font-size="14.00" fill="#000000">GameModule</text>
</g>
<!-- GameComponent&#45;&gt;GameModule -->
<g id="edge1" class="edge">
<title>GameComponent&#45;&gt;GameModule</title>
<path fill="none" stroke="#000000" d="M281.5544,-122.1061C281.5544,-122.1061 281.5544,-140.991 281.5544,-140.991"/>
<polygon fill="#000000" stroke="#000000" points="278.0544,-140.9909 281.5544,-150.991 285.0544,-140.991 278.0544,-140.9909"/>
</g>
<!-- GameService -->
<g id="node3" class="node">
<title>GameService</title>
<ellipse fill="#fdb462" stroke="#000000" cx="179" cy="-104" rx="63.0977" ry="18"/>
<text text-anchor="middle" x="179" y="-99.8" font-family="Times,serif" font-size="14.00" fill="#000000">GameService</text>
</g>
<!-- GameService&#45;&gt;GameModule -->
<g id="edge2" class="edge">
<title>GameService&#45;&gt;GameModule</title>
<path fill="none" stroke="#000000" d="M223.2804,-116.8419C223.2804,-116.8419 223.2804,-140.5231 223.2804,-140.5231"/>
<polygon fill="#000000" stroke="#000000" points="219.7805,-140.523 223.2804,-150.5231 226.7805,-140.5231 219.7805,-140.523"/>
</g>
</g>
</svg>
