<?xml version="1.0" encoding="UTF-8" standalone="no"?>
<!DOCTYPE svg PUBLIC "-//W3C//DTD SVG 1.1//EN"
 "http://www.w3.org/Graphics/SVG/1.1/DTD/svg11.dtd">
<!-- Generated by graphviz version 2.44.1 (20200629.0846)
 -->
<!-- Title: dependencies Pages: 1 -->
<svg width="504pt" height="211pt"
 viewBox="0.00 0.00 504.00 211.00" xmlns="http://www.w3.org/2000/svg" xmlns:xlink="http://www.w3.org/1999/xlink">
<g id="graph0" class="graph" transform="scale(1 1) rotate(0) translate(4 207)">
<title>dependencies</title>
<polygon fill="white" stroke="transparent" points="-4,4 -4,-207 500,-207 500,4 -4,4"/>
<text text-anchor="start" x="227.01" y="-42.4" font-family="sans-serif" font-weight="bold" font-size="14.00">Legend</text>
<polygon fill="#ffffb3" stroke="transparent" points="14,-10 14,-30 34,-30 34,-10 14,-10"/>
<text text-anchor="start" x="37.63" y="-15.4" font-family="sans-serif" font-size="14.00"> &#160;Declarations</text>
<polygon fill="#8dd3c7" stroke="transparent" points="127,-10 127,-30 147,-30 147,-10 127,-10"/>
<text text-anchor="start" x="150.73" y="-15.4" font-family="sans-serif" font-size="14.00"> &#160;Module</text>
<polygon fill="#80b1d3" stroke="transparent" points="213,-10 213,-30 233,-30 233,-10 213,-10"/>
<text text-anchor="start" x="236.78" y="-15.4" font-family="sans-serif" font-size="14.00"> &#160;Bootstrap</text>
<polygon fill="#fdb462" stroke="transparent" points="310,-10 310,-30 330,-30 330,-10 310,-10"/>
<text text-anchor="start" x="333.67" y="-15.4" font-family="sans-serif" font-size="14.00"> &#160;Providers</text>
<polygon fill="#fb8072" stroke="transparent" points="406,-10 406,-30 426,-30 426,-10 406,-10"/>
<text text-anchor="start" x="429.73" y="-15.4" font-family="sans-serif" font-size="14.00"> &#160;Exports</text>
<g id="clust1" class="cluster">
<title>cluster_GameModule</title>
<polygon fill="none" stroke="black" stroke-dasharray="1,5" points="61,-70 61,-195 435,-195 435,-70 61,-70"/>
</g>
<g id="clust2" class="cluster">
<title>cluster_GameModule_declarations</title>
<polygon fill="none" stroke="black" points="297,-78 297,-130 427,-130 427,-78 297,-78"/>
</g>
<g id="clust7" class="cluster">
<title>cluster_GameModule_providers</title>
<polygon fill="none" stroke="black" points="69,-78 69,-130 289,-130 289,-78 69,-78"/>
</g>
<!-- GameComponent -->
<g id="node1" class="node">
<title>GameComponent</title>
<polygon fill="#ffffb3" stroke="black" points="419.26,-122 304.74,-122 304.74,-86 419.26,-86 419.26,-122"/>
<text text-anchor="middle" x="362" y="-99.8" font-family="Times,serif" font-size="14.00">GameComponent</text>
</g>
<!-- GameModule -->
<g id="node2" class="node">
<title>GameModule</title>
<polygon fill="#8dd3c7" stroke="black" points="264.48,-187 261.48,-191 240.48,-191 237.48,-187 171.52,-187 171.52,-151 264.48,-151 264.48,-187"/>
<text text-anchor="middle" x="218" y="-164.8" font-family="Times,serif" font-size="14.00">GameModule</text>
</g>
<!-- GameComponent&#45;&gt;GameModule -->
<g id="edge1" class="edge">
<title>GameComponent&#45;&gt;GameModule</title>
<path fill="none" stroke="black" d="M362,-122.11C362,-141.34 362,-169 362,-169 362,-169 274.75,-169 274.75,-169"/>
<polygon fill="black" stroke="black" points="274.75,-165.5 264.75,-169 274.75,-172.5 274.75,-165.5"/>
</g>
<!-- GameService -->
<g id="node3" class="node">
<title>GameService</title>
<ellipse fill="#fdb462" stroke="black" cx="218" cy="-104" rx="63.1" ry="18"/>
<text text-anchor="middle" x="218" y="-99.8" font-family="Times,serif" font-size="14.00">GameService</text>
</g>
<!-- GameService&#45;&gt;GameModule -->
<g id="edge2" class="edge">
<title>GameService&#45;&gt;GameModule</title>
<path fill="none" stroke="black" d="M218,-122.11C218,-122.11 218,-140.99 218,-140.99"/>
<polygon fill="black" stroke="black" points="214.5,-140.99 218,-150.99 221.5,-140.99 214.5,-140.99"/>
</g>
<!-- Utils -->
<g id="node4" class="node">
<title>Utils</title>
<ellipse fill="#fdb462" stroke="black" cx="107" cy="-104" rx="29.63" ry="18"/>
<text text-anchor="middle" x="107" y="-99.8" font-family="Times,serif" font-size="14.00">Utils</text>
</g>
<!-- Utils&#45;&gt;GameModule -->
<g id="edge3" class="edge">
<title>Utils&#45;&gt;GameModule</title>
<path fill="none" stroke="black" d="M107,-122.11C107,-141.34 107,-169 107,-169 107,-169 161.25,-169 161.25,-169"/>
<polygon fill="black" stroke="black" points="161.25,-172.5 171.25,-169 161.25,-165.5 161.25,-172.5"/>
</g>
</g>
</svg>
