<?xml version="1.0" encoding="UTF-8" standalone="no"?>
<!DOCTYPE svg PUBLIC "-//W3C//DTD SVG 1.1//EN"
 "http://www.w3.org/Graphics/SVG/1.1/DTD/svg11.dtd">
<!-- Generated by graphviz version 2.40.1 (20161225.0304)
 -->
<!-- Title: dependencies Pages: 1 -->
<svg width="530pt" height="284pt"
 viewBox="0.00 0.00 530.00 284.00" xmlns="http://www.w3.org/2000/svg" xmlns:xlink="http://www.w3.org/1999/xlink">
<g id="graph0" class="graph" transform="scale(1 1) rotate(0) translate(4 280)">
<title>dependencies</title>
<polygon fill="#ffffff" stroke="transparent" points="-4,4 -4,-280 526,-280 526,4 -4,4"/>
<text text-anchor="start" x="240.0091" y="-42.4" font-family="sans-serif" font-weight="bold" font-size="14.00" fill="#000000">Legend</text>
<polygon fill="#ffffb3" stroke="transparent" points="27,-10 27,-30 47,-30 47,-10 27,-10"/>
<text text-anchor="start" x="50.629" y="-15.4" font-family="sans-serif" font-size="14.00" fill="#000000"> &#160;Declarations</text>
<polygon fill="#8dd3c7" stroke="transparent" points="140,-10 140,-30 160,-30 160,-10 140,-10"/>
<text text-anchor="start" x="163.7251" y="-15.4" font-family="sans-serif" font-size="14.00" fill="#000000"> &#160;Module</text>
<polygon fill="#80b1d3" stroke="transparent" points="226,-10 226,-30 246,-30 246,-10 226,-10"/>
<text text-anchor="start" x="249.7812" y="-15.4" font-family="sans-serif" font-size="14.00" fill="#000000"> &#160;Bootstrap</text>
<polygon fill="#fdb462" stroke="transparent" points="323,-10 323,-30 343,-30 343,-10 323,-10"/>
<text text-anchor="start" x="346.6732" y="-15.4" font-family="sans-serif" font-size="14.00" fill="#000000"> &#160;Providers</text>
<polygon fill="#fb8072" stroke="transparent" points="419,-10 419,-30 439,-30 439,-10 419,-10"/>
<text text-anchor="start" x="442.7258" y="-15.4" font-family="sans-serif" font-size="14.00" fill="#000000"> &#160;Exports</text>
<g id="clust1" class="cluster">
<title>cluster_AppModule</title>
<polygon fill="none" stroke="#000000" stroke-dasharray="1,5" points="8,-70 8,-268 514,-268 514,-70 8,-70"/>
</g>
<g id="clust2" class="cluster">
<title>cluster_AppModule_declarations</title>
<polygon fill="none" stroke="#000000" points="384,-78 384,-130 506,-130 506,-78 384,-78"/>
</g>
<g id="clust4" class="cluster">
<title>cluster_AppModule_imports</title>
<polygon fill="none" stroke="#000000" points="16,-78 16,-130 376,-130 376,-78 16,-78"/>
</g>
<g id="clust6" class="cluster">
<title>cluster_AppModule_bootstrap</title>
<polygon fill="none" stroke="#000000" points="179,-208 179,-260 303,-260 303,-208 179,-208"/>
</g>
<!-- AppComponent -->
<g id="node1" class="node">
<title>AppComponent</title>
<polygon fill="#ffffb3" stroke="#000000" points="497.9399,-122 392.0601,-122 392.0601,-86 497.9399,-86 497.9399,-122"/>
<text text-anchor="middle" x="445" y="-99.8" font-family="Times,serif" font-size="14.00" fill="#000000">AppComponent</text>
</g>
<!-- AppModule -->
<g id="node2" class="node">
<title>AppModule</title>
<polygon fill="#8dd3c7" stroke="#000000" points="282.6571,-187 279.6571,-191 258.6571,-191 255.6571,-187 199.3429,-187 199.3429,-151 282.6571,-151 282.6571,-187"/>
<text text-anchor="middle" x="241" y="-164.8" font-family="Times,serif" font-size="14.00" fill="#000000">AppModule</text>
</g>
<!-- AppComponent&#45;&gt;AppModule -->
<g id="edge1" class="edge">
<title>AppComponent&#45;&gt;AppModule</title>
<path fill="none" stroke="#000000" d="M445,-122.1061C445,-141.3391 445,-169 445,-169 445,-169 292.7747,-169 292.7747,-169"/>
<polygon fill="#000000" stroke="#000000" points="292.7747,-165.5001 282.7747,-169 292.7747,-172.5001 292.7747,-165.5001"/>
</g>
<!-- AppComponent  -->
<g id="node6" class="node">
<title>AppComponent </title>
<polygon fill="#80b1d3" stroke="#000000" points="295.439,-252 186.561,-252 186.561,-216 295.439,-216 295.439,-252"/>
<text text-anchor="middle" x="241" y="-229.8" font-family="Times,serif" font-size="14.00" fill="#000000">AppComponent </text>
</g>
<!-- AppModule&#45;&gt;AppComponent  -->
<g id="edge5" class="edge">
<title>AppModule&#45;&gt;AppComponent </title>
<path fill="none" stroke="#000000" stroke-dasharray="1,5" d="M241,-187.1061C241,-187.1061 241,-205.991 241,-205.991"/>
<polygon fill="#000000" stroke="#000000" points="237.5001,-205.9909 241,-215.991 244.5001,-205.991 237.5001,-205.9909"/>
</g>
<!-- AppRoutingModule -->
<g id="node3" class="node">
<title>AppRoutingModule</title>
<polygon fill="#8dd3c7" stroke="#000000" points="368.2744,-122 365.2744,-126 344.2744,-126 341.2744,-122 239.7256,-122 239.7256,-86 368.2744,-86 368.2744,-122"/>
<text text-anchor="middle" x="304" y="-99.8" font-family="Times,serif" font-size="14.00" fill="#000000">AppRoutingModule</text>
</g>
<!-- AppRoutingModule&#45;&gt;AppModule -->
<g id="edge2" class="edge">
<title>AppRoutingModule&#45;&gt;AppModule</title>
<path fill="none" stroke="#000000" d="M261.2206,-122.1061C261.2206,-122.1061 261.2206,-140.991 261.2206,-140.991"/>
<polygon fill="#000000" stroke="#000000" points="257.7206,-140.9909 261.2206,-150.991 264.7206,-140.991 257.7206,-140.9909"/>
</g>
<!-- CoreModule -->
<g id="node4" class="node">
<title>CoreModule</title>
<polygon fill="#8dd3c7" stroke="#000000" points="221.2619,-122 218.2619,-126 197.2619,-126 194.2619,-122 134.7381,-122 134.7381,-86 221.2619,-86 221.2619,-122"/>
<text text-anchor="middle" x="178" y="-99.8" font-family="Times,serif" font-size="14.00" fill="#000000">CoreModule</text>
</g>
<!-- CoreModule&#45;&gt;AppModule -->
<g id="edge3" class="edge">
<title>CoreModule&#45;&gt;AppModule</title>
<path fill="none" stroke="#000000" d="M210.2763,-122.1061C210.2763,-122.1061 210.2763,-140.991 210.2763,-140.991"/>
<polygon fill="#000000" stroke="#000000" points="206.7764,-140.9909 210.2763,-150.991 213.7764,-140.991 206.7764,-140.9909"/>
</g>
<!-- GameModule -->
<g id="node5" class="node">
<title>GameModule</title>
<polygon fill="#8dd3c7" stroke="#000000" points="116.4762,-122 113.4762,-126 92.4762,-126 89.4762,-122 23.5238,-122 23.5238,-86 116.4762,-86 116.4762,-122"/>
<text text-anchor="middle" x="70" y="-99.8" font-family="Times,serif" font-size="14.00" fill="#000000">GameModule</text>
</g>
<!-- GameModule&#45;&gt;AppModule -->
<g id="edge4" class="edge">
<title>GameModule&#45;&gt;AppModule</title>
<path fill="none" stroke="#000000" d="M70,-122.1061C70,-141.3391 70,-169 70,-169 70,-169 189.1687,-169 189.1687,-169"/>
<polygon fill="#000000" stroke="#000000" points="189.1687,-172.5001 199.1687,-169 189.1687,-165.5001 189.1687,-172.5001"/>
</g>
</g>
</svg>
