<?xml version="1.0" encoding="UTF-8" standalone="no"?>
<!DOCTYPE svg PUBLIC "-//W3C//DTD SVG 1.1//EN"
 "http://www.w3.org/Graphics/SVG/1.1/DTD/svg11.dtd">
<!-- Generated by graphviz version 2.44.1 (20200629.0846)
 -->
<!-- Title: dependencies Pages: 1 -->
<svg width="625pt" height="360pt"
 viewBox="0.00 0.00 625.00 360.00" xmlns="http://www.w3.org/2000/svg" xmlns:xlink="http://www.w3.org/1999/xlink">
<g id="graph0" class="graph" transform="scale(1 1) rotate(0) translate(4 356)">
<title>dependencies</title>
<polygon fill="white" stroke="transparent" points="-4,4 -4,-356 621,-356 621,4 -4,4"/>
<text text-anchor="start" x="287.51" y="-42.4" font-family="sans-serif" font-weight="bold" font-size="14.00">Legend</text>
<polygon fill="#ffffb3" stroke="transparent" points="74.5,-10 74.5,-30 94.5,-30 94.5,-10 74.5,-10"/>
<text text-anchor="start" x="98.13" y="-15.4" font-family="sans-serif" font-size="14.00"> &#160;Declarations</text>
<polygon fill="#8dd3c7" stroke="transparent" points="187.5,-10 187.5,-30 207.5,-30 207.5,-10 187.5,-10"/>
<text text-anchor="start" x="211.23" y="-15.4" font-family="sans-serif" font-size="14.00"> &#160;Module</text>
<polygon fill="#80b1d3" stroke="transparent" points="273.5,-10 273.5,-30 293.5,-30 293.5,-10 273.5,-10"/>
<text text-anchor="start" x="297.28" y="-15.4" font-family="sans-serif" font-size="14.00"> &#160;Bootstrap</text>
<polygon fill="#fdb462" stroke="transparent" points="370.5,-10 370.5,-30 390.5,-30 390.5,-10 370.5,-10"/>
<text text-anchor="start" x="394.17" y="-15.4" font-family="sans-serif" font-size="14.00"> &#160;Providers</text>
<polygon fill="#fb8072" stroke="transparent" points="466.5,-10 466.5,-30 486.5,-30 486.5,-10 466.5,-10"/>
<text text-anchor="start" x="490.23" y="-15.4" font-family="sans-serif" font-size="14.00"> &#160;Exports</text>
<g id="clust1" class="cluster">
<title>cluster_AppModule</title>
<polygon fill="none" stroke="black" stroke-dasharray="1,5" points="103,-146 103,-344 609,-344 609,-146 103,-146"/>
</g>
<g id="clust2" class="cluster">
<title>cluster_AppModule_declarations</title>
<polygon fill="none" stroke="black" points="479,-154 479,-206 601,-206 601,-154 479,-154"/>
</g>
<g id="clust4" class="cluster">
<title>cluster_AppModule_imports</title>
<polygon fill="none" stroke="black" points="111,-154 111,-206 471,-206 471,-154 111,-154"/>
</g>
<g id="clust6" class="cluster">
<title>cluster_AppModule_bootstrap</title>
<polygon fill="none" stroke="black" points="274,-284 274,-336 398,-336 398,-284 274,-284"/>
</g>
<g id="clust20" class="cluster">
<title>cluster_GameModule</title>
<polygon fill="none" stroke="black" stroke-dasharray="1,5" points="8,-70 8,-138 382,-138 382,-70 8,-70"/>
</g>
<g id="clust21" class="cluster">
<title>cluster_GameModule_declarations</title>
<polygon fill="none" stroke="black" points="244,-78 244,-130 374,-130 374,-78 244,-78"/>
</g>
<g id="clust26" class="cluster">
<title>cluster_GameModule_providers</title>
<polygon fill="none" stroke="black" points="16,-78 16,-130 236,-130 236,-78 16,-78"/>
</g>
<!-- AppComponent -->
<g id="node1" class="node">
<title>AppComponent</title>
<polygon fill="#ffffb3" stroke="black" points="592.94,-198 487.06,-198 487.06,-162 592.94,-162 592.94,-198"/>
<text text-anchor="middle" x="540" y="-175.8" font-family="Times,serif" font-size="14.00">AppComponent</text>
</g>
<!-- AppModule -->
<g id="node2" class="node">
<title>AppModule</title>
<polygon fill="#8dd3c7" stroke="black" points="377.66,-263 374.66,-267 353.66,-267 350.66,-263 294.34,-263 294.34,-227 377.66,-227 377.66,-263"/>
<text text-anchor="middle" x="336" y="-240.8" font-family="Times,serif" font-size="14.00">AppModule</text>
</g>
<!-- AppComponent&#45;&gt;AppModule -->
<g id="edge1" class="edge">
<title>AppComponent&#45;&gt;AppModule</title>
<path fill="none" stroke="black" d="M540,-198.11C540,-217.34 540,-245 540,-245 540,-245 387.77,-245 387.77,-245"/>
<polygon fill="black" stroke="black" points="387.77,-241.5 377.77,-245 387.77,-248.5 387.77,-241.5"/>
</g>
<!-- AppComponent  -->
<g id="node6" class="node">
<title>AppComponent </title>
<polygon fill="#80b1d3" stroke="black" points="390.44,-328 281.56,-328 281.56,-292 390.44,-292 390.44,-328"/>
<text text-anchor="middle" x="336" y="-305.8" font-family="Times,serif" font-size="14.00">AppComponent </text>
</g>
<!-- AppModule&#45;&gt;AppComponent  -->
<g id="edge5" class="edge">
<title>AppModule&#45;&gt;AppComponent </title>
<path fill="none" stroke="black" stroke-dasharray="1,5" d="M336,-263.11C336,-263.11 336,-281.99 336,-281.99"/>
<polygon fill="black" stroke="black" points="332.5,-281.99 336,-291.99 339.5,-281.99 332.5,-281.99"/>
</g>
<!-- AppRoutingModule -->
<g id="node3" class="node">
<title>AppRoutingModule</title>
<polygon fill="#8dd3c7" stroke="black" points="463.27,-198 460.27,-202 439.27,-202 436.27,-198 334.73,-198 334.73,-162 463.27,-162 463.27,-198"/>
<text text-anchor="middle" x="399" y="-175.8" font-family="Times,serif" font-size="14.00">AppRoutingModule</text>
</g>
<!-- AppRoutingModule&#45;&gt;AppModule -->
<g id="edge2" class="edge">
<title>AppRoutingModule&#45;&gt;AppModule</title>
<path fill="none" stroke="black" d="M356.22,-198.11C356.22,-198.11 356.22,-216.99 356.22,-216.99"/>
<polygon fill="black" stroke="black" points="352.72,-216.99 356.22,-226.99 359.72,-216.99 352.72,-216.99"/>
</g>
<!-- CoreModule -->
<g id="node4" class="node">
<title>CoreModule</title>
<polygon fill="#8dd3c7" stroke="black" points="316.26,-198 313.26,-202 292.26,-202 289.26,-198 229.74,-198 229.74,-162 316.26,-162 316.26,-198"/>
<text text-anchor="middle" x="273" y="-175.8" font-family="Times,serif" font-size="14.00">CoreModule</text>
</g>
<!-- CoreModule&#45;&gt;AppModule -->
<g id="edge3" class="edge">
<title>CoreModule&#45;&gt;AppModule</title>
<path fill="none" stroke="black" d="M305.28,-198.11C305.28,-198.11 305.28,-216.99 305.28,-216.99"/>
<polygon fill="black" stroke="black" points="301.78,-216.99 305.28,-226.99 308.78,-216.99 301.78,-216.99"/>
</g>
<!-- GameModule -->
<g id="node5" class="node">
<title>GameModule</title>
<polygon fill="#8dd3c7" stroke="black" points="211.48,-198 208.48,-202 187.48,-202 184.48,-198 118.52,-198 118.52,-162 211.48,-162 211.48,-198"/>
<text text-anchor="middle" x="165" y="-175.8" font-family="Times,serif" font-size="14.00">GameModule</text>
</g>
<!-- GameModule&#45;&gt;AppModule -->
<g id="edge4" class="edge">
<title>GameModule&#45;&gt;AppModule</title>
<path fill="none" stroke="black" d="M165,-198.11C165,-217.34 165,-245 165,-245 165,-245 284.17,-245 284.17,-245"/>
<polygon fill="black" stroke="black" points="284.17,-248.5 294.17,-245 284.17,-241.5 284.17,-248.5"/>
</g>
<!-- GameComponent -->
<g id="node7" class="node">
<title>GameComponent</title>
<polygon fill="#ffffb3" stroke="black" points="366.26,-122 251.74,-122 251.74,-86 366.26,-86 366.26,-122"/>
<text text-anchor="middle" x="309" y="-99.8" font-family="Times,serif" font-size="14.00">GameComponent</text>
</g>
<!-- GameComponent&#45;&gt;GameModule -->
<g id="edge6" class="edge">
<title>GameComponent&#45;&gt;GameModule</title>
<path fill="none" stroke="black" d="M284,-122.11C284,-131.9 284,-142 284,-142 284,-142 180.5,-142 180.5,-142 180.5,-142 180.5,-151.89 180.5,-151.89"/>
<polygon fill="black" stroke="black" points="177,-151.89 180.5,-161.89 184,-151.89 177,-151.89"/>
</g>
<!-- GameService -->
<g id="node8" class="node">
<title>GameService</title>
<ellipse fill="#fdb462" stroke="black" cx="165" cy="-104" rx="63.1" ry="18"/>
<text text-anchor="middle" x="165" y="-99.8" font-family="Times,serif" font-size="14.00">GameService</text>
</g>
<!-- GameService&#45;&gt;GameModule -->
<g id="edge7" class="edge">
<title>GameService&#45;&gt;GameModule</title>
<path fill="none" stroke="black" d="M149.5,-121.63C149.5,-121.63 149.5,-151.94 149.5,-151.94"/>
<polygon fill="black" stroke="black" points="146,-151.94 149.5,-161.94 153,-151.94 146,-151.94"/>
</g>
<!-- Utils -->
<g id="node9" class="node">
<title>Utils</title>
<ellipse fill="#fdb462" stroke="black" cx="54" cy="-104" rx="29.63" ry="18"/>
<text text-anchor="middle" x="54" y="-99.8" font-family="Times,serif" font-size="14.00">Utils</text>
</g>
<!-- Utils&#45;&gt;GameModule -->
<g id="edge8" class="edge">
<title>Utils&#45;&gt;GameModule</title>
<path fill="none" stroke="black" d="M54,-122.01C54,-144.49 54,-180 54,-180 54,-180 108.25,-180 108.25,-180"/>
<polygon fill="black" stroke="black" points="108.25,-183.5 118.25,-180 108.25,-176.5 108.25,-183.5"/>
</g>
</g>
</svg>
